<svg width="737" height="474" viewBox="0 0 737 474" fill="none" xmlns="http://www.w3.org/2000/svg">
<g clip-path="url(#clip0)">
<path opacity="0.1" d="M732.384 326.517C724.989 344.728 709.517 361.178 692.909 376.757C678.31 390.454 662.693 403.69 646.059 416.465C641.449 420.012 636.766 423.514 632.009 426.971L628.704 429.358C625.774 431.481 622.794 433.585 619.764 435.668L619.401 435.921C616.462 437.969 613.497 439.997 610.506 442.005C600.722 448.587 590.379 455.123 578.946 460.536C575.05 462.384 571.031 464.106 566.87 465.649C564.619 466.487 562.32 467.271 559.974 468.003C556.131 469.199 552.183 470.243 548.061 471.101C547.372 471.247 546.678 471.387 545.983 471.52C541.763 472.331 537.491 472.923 533.173 473.328C517.351 474.811 501.009 473.727 485.161 471.187C477.24 469.917 469.443 468.282 461.898 466.42C460.97 466.194 460.048 465.961 459.119 465.755C433.429 459.173 409.309 450.236 383.436 443.953C374.52 441.785 365.43 439.946 356.167 438.434C351.649 437.698 347.104 437.033 342.533 436.439C331.775 435.07 320.88 434.152 309.941 433.687C295.189 433.022 279.958 433.308 265.921 435.947C264.051 436.297 262.205 436.692 260.383 437.131C258.072 437.685 255.804 438.317 253.579 439.026C247.581 441.01 241.744 443.471 236.12 446.386C235.01 446.945 233.913 447.51 232.816 448.082C229.375 449.877 225.979 451.712 222.532 453.494C216.327 456.82 209.87 459.626 203.223 461.885C199.582 463.063 195.88 464.031 192.134 464.784C182.219 466.819 171.669 467.624 161.073 467.677C155.964 467.677 150.848 467.564 145.79 467.291H145.634C143.907 467.198 142.173 467.092 140.44 466.959C132.545 466.407 124.676 465.556 116.924 464.392C90.3631 460.403 65.172 452.863 44.9088 441.36C17.387 425.748 -0.0909059 402.469 2.53208 379.211C4.41491 362.455 16.108 346.896 27.2037 331.663C47.8435 303.298 67.1782 274.288 77.352 243.709C85.604 218.888 88.0647 192.644 107.055 170.336C113.139 163.195 120.917 156.679 129.974 150.967C136.744 146.723 143.84 143.049 151.192 139.983C159.501 136.498 168.048 133.642 176.766 131.439C184.321 129.52 191.977 128.046 199.697 127.024C203.891 126.466 208.138 126.033 212.41 125.741C215.699 125.506 219.004 125.357 222.324 125.295H222.837C224.867 125.255 226.897 125.255 228.927 125.295C243.729 125.53 258.49 126.951 273.076 129.544C282.204 131.107 291.255 133.022 300.117 135.129C305.407 136.384 310.648 137.698 315.842 139.072C317.426 139.491 319.011 139.917 320.575 140.349C357.531 150.489 390.045 164.492 425.65 175.981C425.832 176.041 426.008 176.101 426.189 176.148C433.497 178.449 440.917 180.358 448.42 181.866C453.932 182.996 459.567 183.974 465.3 184.831C474.078 186.161 483.044 187.212 492.076 188.116L494.069 188.315C507.32 189.645 520.688 190.636 533.673 191.793C538.283 192.205 542.854 192.631 547.359 193.123C550.216 193.415 553.047 193.726 555.852 194.054C557.864 194.293 559.884 194.532 561.903 194.785C563.922 195.038 566.058 195.304 568.136 195.576C569.486 195.749 570.83 195.929 572.18 196.121C580.361 197.232 588.522 198.475 596.592 199.898C601.501 200.762 606.383 201.693 611.207 202.697C614.7 203.424 618.163 204.191 621.595 204.998C624.14 205.587 626.664 206.208 629.165 206.86C649.494 212.093 668.517 218.954 684.91 228.217C727.482 252.213 746.531 291.689 732.384 326.517Z" fill="#24B086"/>
<path opacity="0.1" d="M161.658 60.1077C169.414 60.1077 175.701 53.6687 175.701 45.7257C175.701 37.7828 169.414 31.3438 161.658 31.3438C153.902 31.3438 147.614 37.7828 147.614 45.7257C147.614 53.6687 153.902 60.1077 161.658 60.1077Z" fill="#24B086"/>
<path opacity="0.1" d="M448.699 28.7639C456.455 28.7639 462.742 22.3249 462.742 14.382C462.742 6.43903 456.455 0 448.699 0C440.943 0 434.656 6.43903 434.656 14.382C434.656 22.3249 440.943 28.7639 448.699 28.7639Z" fill="#24B086"/>
<path opacity="0.1" d="M618.901 60.9721C626.657 60.9721 632.944 54.5331 632.944 46.5901C632.944 38.6472 626.657 32.2082 618.901 32.2082C611.145 32.2082 604.857 38.6472 604.857 46.5901C604.857 54.5331 611.145 60.9721 618.901 60.9721Z" fill="#24B086"/>
<path opacity="0.1" d="M23.5354 104.623C36.5337 104.623 47.0709 93.8321 47.0709 80.5204C47.0709 67.2087 36.5337 56.4175 23.5354 56.4175C10.5372 56.4175 0 67.2087 0 80.5204C0 93.8321 10.5372 104.623 23.5354 104.623Z" fill="#24B086"/>
<path opacity="0.1" d="M46.097 223.642C59.0953 223.642 69.6324 212.851 69.6324 199.539C69.6324 186.227 59.0953 175.436 46.097 175.436C33.0987 175.436 22.5616 186.227 22.5616 199.539C22.5616 212.851 33.0987 223.642 46.097 223.642Z" fill="#24B086"/>
<path opacity="0.1" d="M677.769 179.831C690.767 179.831 701.304 169.04 701.304 155.728C701.304 142.417 690.767 131.625 677.769 131.625C664.77 131.625 654.233 142.417 654.233 155.728C654.233 169.04 664.77 179.831 677.769 179.831Z" fill="#24B086"/>
<path d="M230.063 159.146C230.18 161.17 230.064 163.2 229.719 165.197C228.42 171.374 222.928 175.616 217.61 178.834C212.293 182.052 206.45 185.097 203.288 190.53C199.477 197.092 200.691 205.916 205.164 212.046C209.637 218.176 216.727 221.827 224.025 223.349C237.335 226.162 251.91 222.212 261.889 212.771C271.868 203.329 276.874 188.575 274.426 174.871C269.012 175.649 264.188 170.755 262.435 165.449C260.682 160.143 261.045 154.392 260.364 148.826C260.314 147.885 260.037 146.972 259.558 146.167C258.799 145.09 257.455 144.651 256.202 144.298C249.943 142.536 239.412 138.68 232.926 140.156C227.083 141.526 229.966 154.119 230.063 159.146Z" fill="#BE6F72"/>
<path opacity="0.1" d="M230.063 159.146C230.18 161.17 230.064 163.2 229.719 165.197C228.42 171.374 222.928 175.616 217.61 178.834C212.293 182.052 206.45 185.097 203.288 190.53C199.477 197.092 200.691 205.916 205.164 212.046C209.637 218.176 216.727 221.827 224.025 223.349C237.335 226.162 251.91 222.212 261.889 212.771C271.868 203.329 276.874 188.575 274.426 174.871C269.012 175.649 264.188 170.755 262.435 165.449C260.682 160.143 261.045 154.392 260.364 148.826C260.314 147.885 260.037 146.972 259.558 146.167C258.799 145.09 257.455 144.651 256.202 144.298C249.943 142.536 239.412 138.68 232.926 140.156C227.083 141.526 229.966 154.119 230.063 159.146Z" fill="black"/>
<path d="M222.499 453.508C216.294 456.833 209.837 459.64 203.19 461.899C199.55 463.076 195.847 464.044 192.101 464.798C191.836 459.685 192.108 454.558 192.913 449.505C193.419 446.599 194.166 443.72 194.36 440.775C194.636 436.523 193.748 432.277 191.796 428.514C199.029 427.503 205.898 425.854 213.163 426.339L213.624 426.373C214.488 426.395 215.343 426.559 216.156 426.858C217.274 427.412 218.223 428.267 218.902 429.331C219.276 429.854 219.621 430.398 219.935 430.96C221.986 434.591 222.765 438.78 222.928 443.095C223.004 446.572 222.861 450.05 222.499 453.508Z" fill="#BE6F72"/>
<path d="M260.357 437.137C258.046 437.692 255.778 438.323 253.553 439.032C247.555 441.017 241.718 443.478 236.094 446.393C235.729 444.582 235.551 442.737 235.562 440.888C238.876 438.547 242.615 436.913 246.558 436.083C250.501 435.252 254.567 435.242 258.513 436.054C259.041 436.119 259.542 436.326 259.968 436.652C260.122 436.792 260.253 436.956 260.357 437.137Z" fill="#BE6F72"/>
<path d="M271.518 403.573C271.076 407.921 270.427 412.283 268.921 416.372C267.291 420.761 264.642 425.016 264.98 429.704C265.129 431.738 265.804 433.946 265.902 435.961C264.032 436.311 262.186 436.705 260.364 437.144C258.052 437.698 255.784 438.33 253.559 439.039C247.562 441.024 241.725 443.485 236.101 446.4C234.991 446.958 233.894 447.523 232.796 448.095C232.342 448.035 231.894 447.962 231.439 447.876C228.193 447.271 224.778 445.781 222.941 443.122C222.52 442.51 222.19 441.837 221.96 441.127C220.902 437.889 222.006 433.853 219.805 431.286L219.701 431.379L219.623 431.433C218.417 432.551 217.093 433.528 215.675 434.345C212.448 436.215 208.873 437.37 205.182 437.734C201.491 438.099 197.767 437.664 194.25 436.459C192.857 435.973 191.511 435.355 190.231 434.611C187.258 432.875 184.388 429.956 184.622 426.472C184.752 424.531 185.836 422.669 185.544 420.747C185.329 419.371 184.446 418.227 183.784 417.011C179.441 409.032 184.622 398.772 181.895 390.102C181.83 389.896 181.758 389.69 181.687 389.49C181.486 388.925 181.259 388.38 181.038 387.834C180.479 386.565 179.856 385.314 179.363 384.011C178.952 382.916 178.626 381.788 178.389 380.64C177.776 377.306 177.558 373.908 177.74 370.52C177.74 361.591 179.298 352.448 181.518 343.844C181.914 342.315 182.356 340.154 182.94 337.8C183.51 335.319 184.278 332.891 185.238 330.539C186.537 327.481 188.303 325.041 190.718 324.462C194.354 323.591 199.912 325.433 203.599 325.885L218.175 327.667L247.32 331.237C252.352 331.856 257.637 332.567 261.785 335.466C262.058 335.659 262.324 335.859 262.591 336.071C263.687 336.955 264.668 337.979 265.512 339.117C265.811 339.509 266.097 339.921 266.369 340.34C267.315 341.823 268.119 343.394 268.771 345.034C272.388 353.931 272.472 363.858 272.498 373.492C272.498 383.546 272.531 393.593 271.518 403.573Z" fill="#3F3D56"/>
<path opacity="0.1" d="M215.643 434.385C214.767 430.927 212.916 425.92 212.643 424.557C211.729 419.985 211.065 415.363 210.657 410.714C209.936 402.429 208.638 390.767 211.494 382.888C214.176 384.35 216.532 388.493 217.773 391.319C222.265 401.565 217.208 414.145 221.428 424.511C221.743 425.132 221.94 425.809 222.006 426.506C221.932 427.39 221.622 428.237 221.11 428.952L219.688 431.373L215.643 434.385Z" fill="black"/>
<path d="M309.148 118.061C313.927 110.082 320.471 102.236 320.062 92.9077C319.913 89.5831 318.848 86.3317 318.037 83.0737C315.711 73.6443 315.558 63.7903 317.589 54.2898C325.617 52.9688 333.835 54.8538 340.546 59.5559C342.669 61.0586 344.682 62.927 345.617 65.3938C346.481 67.6678 346.338 70.2011 346.182 72.6346C345.825 78.2265 345.338 84.1907 341.975 88.5924C340.929 89.9688 339.644 91.1324 338.625 92.522C337.138 94.5168 336.268 96.9503 335.417 99.324L324.38 130.076C318.809 145.575 312.771 161.786 300.5 172.511C300.202 172.77 291.411 159.984 290.684 158.7C287.743 153.441 289.028 151.22 292.586 146.818C299.604 138.115 303.416 127.616 309.148 118.061Z" fill="#BE6F72"/>
<path d="M182.661 380.175C182.623 382.47 182.435 384.761 182.096 387.03C181.979 387.868 181.843 388.699 181.681 389.53C179.467 401.365 173.954 412.622 170.098 424.152C165.014 439.372 162.781 452.577 161.008 467.69C155.899 467.69 150.783 467.577 145.725 467.304H145.569C143.842 467.211 142.109 467.105 140.375 466.972C141.94 452.876 139.077 438.088 141.875 423.979C143.005 418.301 144.933 412.789 146.095 407.137C146.453 405.473 146.724 403.79 146.907 402.097C147.069 400.488 147.153 398.819 147.861 397.369C147.926 397.229 147.999 397.094 148.082 396.964C148.703 395.961 149.475 395.063 150.367 394.304C158.278 387.2 167.954 382.475 178.324 380.653C179.798 380.447 181.233 380.275 182.661 380.175Z" fill="#FBBEBE"/>
<path opacity="0.1" d="M182.661 380.175C182.623 382.47 182.435 384.761 182.096 387.03C181.979 387.868 181.843 388.699 181.681 389.53C179.467 401.365 173.954 412.622 170.098 424.152C165.014 439.372 162.781 452.577 161.008 467.69C155.899 467.69 150.783 467.577 145.725 467.304H145.569C143.842 467.211 142.109 467.105 140.375 466.972C141.94 452.876 139.077 438.088 141.875 423.979C143.005 418.301 144.933 412.789 146.095 407.137C146.453 405.473 146.724 403.79 146.907 402.097C147.069 400.488 147.153 398.819 147.861 397.369C147.926 397.229 147.999 397.094 148.082 396.964C148.703 395.961 149.475 395.063 150.367 394.304C158.278 387.2 167.954 382.475 178.324 380.653C179.798 380.447 181.233 380.275 182.661 380.175Z" fill="black"/>
<path d="M149.744 410.475C149.639 414.17 149.342 417.856 148.854 421.519C147.121 436.486 146.796 452.104 145.608 467.298C143.881 467.205 142.148 467.098 140.414 466.965C132.519 466.413 124.65 465.562 116.898 464.399C117.495 460.977 118.097 457.555 118.703 454.132C119.443 449.937 120.183 445.701 119.969 441.446C119.768 437.423 118.716 433.507 117.878 429.564C116.093 421.12 115.093 412.011 112.152 404.045C110.618 399.577 108.17 395.497 104.971 392.077C117.138 387.183 128.831 386.904 141.901 387.422C142.829 387.37 143.751 387.601 144.55 388.087C145.169 388.637 145.63 389.35 145.881 390.148C147.845 394.987 149.077 400.103 149.536 405.322C149.692 407.034 149.762 408.754 149.744 410.475Z" fill="#FBBEBE"/>
<path d="M247.749 155.715C261.733 155.715 273.069 144.105 273.069 129.784C273.069 115.462 261.733 103.852 247.749 103.852C233.764 103.852 222.428 115.462 222.428 129.784C222.428 144.105 233.764 155.715 247.749 155.715Z" fill="#BE6F72"/>
<path d="M253.014 190.39C256.26 184.718 259.104 177.637 265.35 176.061C268.875 175.164 272.544 176.387 275.978 177.59C276.973 177.832 277.877 178.368 278.575 179.133C279.083 179.958 279.355 180.911 279.361 181.886C280.448 193.608 280.411 205.411 279.25 217.126C278.426 225.417 277.036 233.669 276.79 242C276.446 253.55 278.302 265.099 277.692 276.635C277.231 285.379 275.361 293.969 273.505 302.513L265.713 338.286C265.574 339.392 265.141 340.439 264.46 341.311C263.803 341.928 263.017 342.383 262.162 342.641C250.885 346.723 238.897 348.339 226.972 347.382C215.048 346.426 203.451 342.919 192.932 337.089C190.121 335.506 187.316 333.678 185.485 330.978C182.888 327.148 182.648 322.082 183.492 317.494C184.336 312.906 186.16 308.577 187.388 304.076C189.283 297.094 189.731 289.807 190.16 282.573C190.731 273.051 191.303 263.47 190.309 253.982C189.627 247.446 188.206 241.009 187.134 234.527C185.556 224.756 184.641 214.885 184.394 204.985C184.232 199.074 184.498 192.511 188.491 188.249C190.439 186.174 193.036 184.924 195.678 183.914C200.113 182.238 205.067 181.254 209.547 182.783C214.026 184.313 217.636 189.127 216.578 193.841C216.091 196.028 214.708 197.943 214.37 200.164C213.923 203.103 215.442 206.062 217.617 208.05C229.316 218.875 247.177 200.656 253.014 190.39Z" fill="#E3E8F4"/>
<path d="M253.942 163.893C257.495 162.553 261.357 162.322 265.038 163.228C267.382 163.8 269.914 164.811 272.076 163.74C272.862 163.355 273.511 162.723 274.303 162.364C276.446 161.4 279.224 162.583 281.12 161.18C282.315 160.296 282.704 158.687 283.107 157.224C285.057 150.242 289.052 144.04 294.553 139.458C293.872 144.558 293.378 150.362 296.67 154.259C298.17 156.027 300.273 157.138 302.403 158.002C305.461 159.246 308.817 160.07 312.044 159.392C315.271 158.714 318.29 156.214 318.803 152.882C318.693 157.889 314.037 161.387 312.732 166.22C312.239 168.029 312.284 169.951 311.94 171.799C311.064 176.52 307.772 180.31 304.896 184.113C295.71 196.346 289.842 210.847 287.885 226.149C287.752 227.964 287.381 229.754 286.782 231.468C286.145 232.783 285.425 234.053 284.626 235.271C279.867 243.503 281.334 253.889 282.951 263.29C285.477 278.018 287.996 292.447 292.086 306.802C292.787 309.256 293.579 311.816 295.365 313.604C294.8 319.409 289.08 322.055 283.938 324.562C278.861 327.041 274.177 330.289 270.044 334.196C268.564 335.593 267.103 337.162 266.564 339.15C266.058 341.018 266.421 343.073 265.772 344.888C265.123 346.703 262.526 348.007 261.383 346.477C259.955 341.005 262.396 335.28 262.285 329.615C262.207 325.792 260.987 322.075 260.812 318.252C260.643 313.923 261.889 309.674 263.214 305.565C266.902 294.122 271.355 282.786 272.634 270.811C273.914 258.836 271.524 245.757 263.227 237.213C253.378 227.026 247.911 213.216 237.354 203.861C235.679 202.378 233.783 200.536 234.062 198.289C234.255 197.299 234.681 196.373 235.302 195.589C238.925 190.35 243.743 186.075 247.638 181.061C251.534 176.048 254.65 170.276 253.942 163.893Z" fill="#3F3D56"/>
<path d="M219.279 174.618C218.63 175.283 218.182 176.201 217.428 176.773C216.549 177.329 215.546 177.647 214.513 177.697C210.692 178.291 206.839 178.644 202.976 178.754C199.73 178.754 196.36 178.461 193.237 179.372C188.881 180.636 185.401 184.16 183.219 188.216C181.038 192.272 180.005 196.859 179.168 201.427C177.322 211.491 176.333 221.701 176.214 231.94C181.565 227.569 186.335 222.5 190.4 216.86C193.516 212.531 196.341 207.744 200.788 204.852C202.833 203.522 205.132 202.644 207.19 201.348C211.481 198.641 214.455 194.266 217.312 190.044C219.415 186.912 225.499 180.795 225.979 177.045C226.388 173.461 221.551 171.713 219.279 174.618Z" fill="#3F3D56"/>
<path d="M241.899 112.03C242.701 112.524 243.468 113.072 244.197 113.673C248.606 116.824 254.507 116.239 259.838 115.521C261.474 115.308 263.155 115.069 264.558 114.191C266.811 112.768 267.869 109.843 267.648 107.137C267.427 104.431 266.096 101.937 264.473 99.8227C262.323 97.0246 259.641 94.7027 256.588 92.9974C253.536 91.2922 250.178 90.2392 246.716 89.9023C244.924 89.6617 243.102 89.8599 241.399 90.4807C239.302 91.3651 237.724 93.1869 235.789 94.4037C230.082 97.9942 221.292 96.3984 217.61 102.13C214.916 106.359 216.838 112.104 215.565 116.964C214.617 120.594 211.884 123.899 212.41 127.603C212.702 129.597 213.922 131.339 214.896 133.121C217.133 137.218 218.168 141.888 217.876 146.572C220.376 148.381 223.863 145.568 224.557 142.523C225.252 139.478 224.453 136.233 225.044 133.161C226.09 127.769 230.738 123.813 232.835 118.866C234.342 115.322 236.796 109.338 241.899 112.03Z" fill="#3F3D56"/>
<path d="M180.505 171.054C180.311 172.265 180.187 173.601 180.843 174.625C182.142 176.62 185.115 175.902 187.452 176.201C191.095 176.66 193.783 180.19 194.49 183.9C195.198 187.611 194.354 191.387 193.432 195.031C191.346 203.289 188.861 211.43 185.979 219.453C178.227 218.516 170.065 215.464 165.949 208.688C162.209 202.525 162.593 194.672 160.216 187.837C158.548 183.023 155.555 178.834 152.594 174.725C157.353 175.336 160.755 169.764 161.034 164.857C161.314 159.95 159.807 154.97 160.833 150.176C161.073 149.039 179.83 152.623 181.655 153.92C186.927 157.663 181.336 165.855 180.505 171.054Z" fill="#FBBEBE"/>
<path opacity="0.1" d="M180.505 171.054C180.311 172.265 180.187 173.601 180.843 174.625C182.142 176.62 185.115 175.902 187.452 176.201C191.095 176.66 193.783 180.19 194.49 183.9C195.198 187.611 194.354 191.387 193.432 195.031C191.346 203.289 188.861 211.43 185.979 219.453C178.227 218.516 170.065 215.464 165.949 208.688C162.209 202.525 162.593 194.672 160.216 187.837C158.548 183.023 155.555 178.834 152.594 174.725C157.353 175.336 160.755 169.764 161.034 164.857C161.314 159.95 159.807 154.97 160.833 150.176C161.073 149.039 179.83 152.623 181.655 153.92C186.927 157.663 181.336 165.855 180.505 171.054Z" fill="black"/>
<path d="M176.331 163.029C190.315 163.029 201.652 151.419 201.652 137.097C201.652 122.776 190.315 111.166 176.331 111.166C162.346 111.166 151.01 122.776 151.01 137.097C151.01 151.419 162.346 163.029 176.331 163.029Z" fill="#FBBEBE"/>
<path d="M168.533 167.331C169.455 165.855 167.884 163.794 168.605 162.204C169.033 161.247 170.117 160.835 170.955 160.21C172.005 159.334 172.843 158.221 173.403 156.958C177.345 149.201 178.538 140.283 176.779 131.725C176.181 128.853 175.649 125.036 178.214 123.746C178.924 123.421 179.703 123.284 180.479 123.347C185.102 123.5 189.569 126.672 194.055 125.548C195.587 125.122 196.954 124.227 197.975 122.982C198.996 121.738 199.622 120.205 199.769 118.586C200.061 114.291 196.919 110.608 193.828 107.715C188.264 102.476 179.785 101.312 172.227 101.186L158.171 100.946C153.672 100.867 148.627 101.013 145.498 104.318C140.992 109.072 143.258 116.851 142.609 123.44C142.057 128.699 139.488 133.519 135.467 136.838C132.552 139.219 128.539 141.493 128.591 145.296C128.591 146.626 129.149 147.836 129.507 149.092C130.941 154.066 129.572 159.565 126.819 163.92C124.066 168.275 120.04 171.626 115.866 174.558C113.632 176.121 111.321 177.624 109.555 179.745C107.619 182.195 106.469 185.197 106.263 188.342C105.985 190.745 106.468 193.176 107.64 195.277C110.386 199.772 116.976 200.43 121.488 197.824C126.001 195.217 128.753 190.284 130.578 185.323C131.669 182.378 132.779 179.007 135.571 177.684C139.103 176.001 143.232 178.661 145.53 181.886C147.829 185.111 149.244 189.047 152.185 191.667C156.795 195.776 164.638 195.111 168.533 190.284C171.318 186.819 171.935 182.025 171.779 177.537C171.702 173.882 170.573 170.332 168.533 167.331Z" fill="#3F3D56"/>
<path d="M177.623 201.128C174.734 201.76 171.715 200.364 169.565 198.276C167.416 196.188 165.969 193.495 164.462 190.889C160.644 184.314 156.266 178.097 151.38 172.311C147.121 167.278 141.193 162.165 134.869 163.72C132.752 164.346 130.788 165.422 129.104 166.879C123.528 171.4 119.164 177.296 116.419 184.015C113.675 190.734 112.64 198.057 113.412 205.297C113.905 209.533 115.028 213.675 115.496 217.93C115.811 221.438 115.902 224.963 115.768 228.483C115.593 239.201 115.236 250.538 109.594 259.567C100.849 273.53 96.1674 290.206 89.7463 305.446C86.2793 313.684 84.2017 322.454 82.163 331.178C80.9554 336.355 79.75 341.53 78.5467 346.703L70.6907 380.547C69.8791 384.038 69.0676 387.695 69.9246 391.186C71.2231 396.399 76.0081 400.042 81.0528 401.525C86.0975 403.008 91.4408 402.755 96.6803 402.802C106.705 402.901 116.807 404.178 126.215 407.742C128.903 408.759 131.584 409.976 134.447 410.215C137.311 410.455 140.161 409.69 142.842 408.626C150.159 405.727 156.431 400.647 163.17 396.545C167.38 393.947 171.813 391.75 176.415 389.982C178.726 389.098 181.207 388.26 182.797 386.325C183.998 384.869 184.537 382.967 184.933 381.106C187.128 370.627 185.654 359.769 184.933 349.077C184.213 338.385 177.973 327.088 183.135 317.766C184.174 315.885 185.414 314.076 185.946 311.988C186.647 309.262 186.057 306.33 186.647 303.577C187.082 301.543 188.128 299.714 188.842 297.766C190.088 294.335 190.257 290.598 190.244 286.935C190.215 278.891 189.388 270.871 187.777 262.998C185.732 253.024 192.497 243.164 196.373 233.742C197.763 230.371 199.73 227.186 200.308 223.575C200.827 220.317 200.158 217 199.658 213.735C198.912 208.675 198.608 203.557 198.749 198.442C198.873 193.854 199.347 189.18 198.275 184.718C197.204 180.257 194.146 175.928 189.751 175.011C189.258 174.863 188.739 174.828 188.232 174.91C187.724 174.991 187.241 175.187 186.816 175.483C186.309 175.992 185.951 176.637 185.784 177.344C184.355 181.826 184.635 186.653 183.836 191.307C183.038 195.962 182.103 200.144 177.623 201.128Z" fill="#F86D70"/>
<path d="M116.353 229.686C116.619 227.844 115.781 225.397 113.963 225.464C112.288 225.53 111.542 227.678 111.548 229.4C111.555 231.122 111.782 233.097 110.594 234.307C109.542 235.378 107.802 235.344 106.581 236.215C106.151 236.53 105.8 236.946 105.559 237.429C105.319 237.911 105.195 238.446 105.199 238.988C105.199 239.912 105.608 240.797 105.634 241.721C105.659 242.645 105.056 243.716 104.16 243.656C103.7 244.447 103.508 245.371 103.615 246.285C103.722 247.2 104.121 248.052 104.751 248.709C105.218 249.174 105.828 249.573 105.984 250.225C106.033 250.682 105.998 251.144 105.88 251.588C105.608 253.417 106.841 255.465 108.64 255.664C107.633 256.402 107.834 258.131 108.756 258.989C109.678 259.846 111.003 260.013 112.243 260.013C115.057 259.997 117.841 259.407 120.43 258.277C121.317 257.977 122.101 257.424 122.689 256.681C122.962 256.299 123.094 255.829 123.059 255.356C123.025 254.883 122.827 254.438 122.501 254.101C123.761 254.314 125.273 254.434 126.098 253.437C127.247 252.04 126.014 249.972 124.799 248.623C125.303 248.546 125.773 248.319 126.152 247.971C126.531 247.623 126.802 247.169 126.93 246.664C127.059 246.16 127.04 245.628 126.876 245.134C126.712 244.641 126.41 244.208 126.007 243.888C125.592 243.576 125.027 243.303 124.968 242.778C124.91 242.253 125.345 241.914 125.527 241.448C125.942 240.404 124.994 239.34 124.079 238.709C121.91 237.233 118.716 237.259 116.788 235.77C114.859 234.281 116.074 231.681 116.353 229.686Z" fill="#BE6F72"/>
<path d="M250.294 128.793C248.721 128.955 247.139 128.993 245.561 128.906C245.292 128.876 245.022 128.955 244.809 129.127C244.597 129.298 244.459 129.548 244.424 129.823L241.405 153.015C241.173 154.699 240.5 156.287 239.458 157.61C238.598 158.663 237.959 159.886 237.581 161.202C237.202 162.519 237.092 163.901 237.257 165.263V204.659C237.257 204.659 237.062 209.912 241.003 209.912C245.72 210.519 250.492 210.519 255.209 209.912C255.209 209.912 258.364 209.3 258.364 204.453V165.662C258.605 164.309 258.555 162.918 258.219 161.586C257.882 160.254 257.267 159.013 256.416 157.949C255.409 156.621 254.757 155.046 254.527 153.381L251.391 129.704C251.355 129.438 251.222 129.195 251.018 129.026C250.814 128.857 250.555 128.773 250.294 128.793Z" fill="#3F3D56"/>
<path opacity="0.1" d="M250.294 128.793C248.721 128.955 247.139 128.993 245.561 128.906C245.292 128.876 245.022 128.955 244.809 129.127C244.597 129.298 244.459 129.548 244.424 129.823L241.405 153.015C241.173 154.699 240.5 156.287 239.458 157.61C238.598 158.663 237.959 159.886 237.581 161.202C237.202 162.519 237.092 163.901 237.257 165.263V204.659C237.257 204.659 237.062 209.912 241.003 209.912C245.72 210.519 250.492 210.519 255.209 209.912C255.209 209.912 258.364 209.3 258.364 204.453V165.662C258.605 164.309 258.555 162.918 258.219 161.586C257.882 160.254 257.267 159.013 256.416 157.949C255.409 156.621 254.757 155.046 254.527 153.381L251.391 129.704C251.355 129.438 251.222 129.195 251.018 129.026C250.814 128.857 250.555 128.773 250.294 128.793Z" fill="black"/>
<path d="M250.313 165.968H245.528C241.566 165.968 238.354 169.257 238.354 173.315V191.753C238.354 195.811 241.566 199.1 245.528 199.1H250.313C254.275 199.1 257.487 195.811 257.487 191.753V173.315C257.487 169.257 254.275 165.968 250.313 165.968Z" fill="#24B086"/>
<path d="M314.615 28.5778C313.228 29.3588 311.782 30.0258 310.291 30.5725C310.033 30.6514 309.815 30.8301 309.683 31.0708C309.55 31.3115 309.515 31.5954 309.583 31.8624L315.518 54.4693C315.942 56.1102 315.924 57.8382 315.466 59.4694C315.066 60.7799 314.934 62.1609 315.079 63.5258C315.225 64.8908 315.643 66.2103 316.31 67.4018L331.126 103.759C331.126 103.759 332.918 108.679 336.56 107.123C341.145 105.821 345.552 103.931 349.675 101.498C349.675 101.498 352.356 99.6898 350.538 95.2216L335.95 59.4229C335.663 58.0788 335.094 56.8145 334.284 55.7171C333.473 54.6197 332.44 53.7153 331.256 53.0664C329.828 52.2389 328.635 51.045 327.795 49.6022L315.998 28.99C315.864 28.7516 315.646 28.5755 315.388 28.4986C315.13 28.4217 314.853 28.4501 314.615 28.5778Z" fill="#3F3D56"/>
<path d="M328.624 62.8847L324.208 64.7719C320.551 66.3345 318.824 70.6371 320.35 74.3819L327.283 91.3978C328.809 95.1426 333.01 96.9116 336.667 95.3489L341.083 93.4618C344.739 91.8991 346.467 87.5966 344.941 83.8518L338.007 66.8359C336.482 63.0911 332.28 61.3221 328.624 62.8847Z" fill="#24B086"/>
<path d="M132.415 168.016C125.436 170.961 122.676 180.124 124.313 187.664C125.949 195.204 130.876 201.487 135.681 207.465L149.146 224.287C152.867 228.941 156.938 233.842 162.612 235.464C170.909 237.838 179.207 232.425 186.381 227.532C207.796 212.918 230.687 200.71 254.657 191.121C257 190.19 259.403 189.246 261.331 187.584C265.33 184.14 266.454 177.79 264.227 172.956C262 168.122 256.812 164.977 251.586 164.937C246.359 164.897 241.276 167.73 238.133 172.012C236.633 174.053 235.536 176.387 234.088 178.461C230.427 183.674 224.713 186.899 219.123 189.811C205.644 196.854 191.769 203.071 177.571 208.429C174.974 209.4 172.046 210.324 169.598 209.041C168.098 208.249 167.085 206.753 166.176 205.291C162.034 198.614 158.74 191.423 156.373 183.894C154.6 178.242 153.165 172.085 148.906 168.069C142.868 162.377 131.935 163.74 127.409 170.729C127.409 170.729 122.105 178.674 125.351 181.999C128.598 185.323 132.415 168.016 132.415 168.016Z" fill="#FBBEBE"/>
<path d="M496.543 140.502C497.49 143.088 497.516 145.921 497.38 148.68C497.211 152.045 496.387 155.994 493.335 157.277C491.348 158.095 488.894 157.477 487.128 158.714C484.986 160.203 485.09 163.408 485.421 166.028C486.336 173.229 487.369 180.696 491.199 186.786C493.257 190.051 496.043 192.77 498.867 195.37C504.496 200.57 510.67 205.65 518.065 207.385C519.27 207.733 520.537 207.787 521.766 207.545C522.978 207.161 524.078 206.476 524.967 205.55C529.252 201.52 531.459 195.769 534.316 190.556C536.335 186.826 538.744 183.242 539.88 179.133C540.816 175.543 540.754 171.756 539.701 168.2C538.648 164.644 536.645 161.459 533.92 159.006C532.654 157.896 531.252 156.965 530.025 155.815C526.817 152.836 524.947 148.561 524.181 144.199C523.415 139.837 523.532 135.349 523.902 130.901C517.409 130.389 510.962 131.193 504.626 132.49C501.808 133.068 497.841 133.334 495.289 134.71C492.42 136.273 495.757 138.274 496.543 140.502Z" fill="#FBBEBE"/>
<path opacity="0.1" d="M496.543 140.502C497.49 143.088 497.516 145.921 497.38 148.68C497.211 152.045 496.387 155.994 493.335 157.277C491.348 158.095 488.894 157.477 487.128 158.714C484.986 160.203 485.09 163.408 485.421 166.028C486.336 173.229 487.369 180.696 491.199 186.786C493.257 190.051 496.043 192.77 498.867 195.37C504.496 200.57 510.67 205.65 518.065 207.385C519.27 207.733 520.537 207.787 521.766 207.545C522.978 207.161 524.078 206.476 524.967 205.55C529.252 201.52 531.459 195.769 534.316 190.556C536.335 186.826 538.744 183.242 539.88 179.133C540.816 175.543 540.754 171.756 539.701 168.2C538.648 164.644 536.645 161.459 533.92 159.006C532.654 157.896 531.252 156.965 530.025 155.815C526.817 152.836 524.947 148.561 524.181 144.199C523.415 139.837 523.532 135.349 523.902 130.901C517.409 130.389 510.962 131.193 504.626 132.49C501.808 133.068 497.841 133.334 495.289 134.71C492.42 136.273 495.757 138.274 496.543 140.502Z" fill="black"/>
<path d="M460.314 160.07C449.77 156.367 444.732 141.898 433.695 140.276C431.955 140.016 430.169 140.116 428.462 139.704C422.106 138.161 419.372 130.635 417.535 124.218C411.341 102.828 403.251 81.8968 391.759 62.9336C386.91 54.9547 379.242 48.3987 375.742 39.6618C374.937 37.6671 374.528 35.3931 373.08 33.8173C371.633 32.2414 368.536 32.0153 367.75 34.0234C367.531 34.7347 367.482 35.4895 367.607 36.2242L368.367 44.5023L355.161 43.2856C353.939 43.0722 352.686 43.1634 351.506 43.5515C350.232 44.2045 349.216 45.2869 348.63 46.6167C344.163 55.214 348.922 66.4776 356.804 71.9165C366.01 78.2664 379.157 79.2305 385.273 88.7055C388.909 94.3439 388.981 101.598 391.376 107.895C392.519 110.907 394.188 113.673 395.519 116.592C398.057 122.157 399.356 128.208 401.323 134.006C404.141 142.297 408.315 150.023 412.477 157.703C415.684 163.634 418.97 169.671 423.904 174.206C427.15 177.185 430.968 179.392 434.786 181.52C444.174 186.773 455.244 191.826 465.19 187.797C465.761 178.714 463.534 168.588 460.314 160.07Z" fill="#FBBEBE"/>
<path d="M492.329 446.3C491.53 454.977 486.388 462.836 485.187 471.187C477.266 469.917 469.469 468.282 461.924 466.42C460.996 466.194 460.074 465.961 459.146 465.755C463.418 453.787 459.697 440.382 460.827 427.636C460.937 426.413 461.093 425.189 461.301 423.979C471.085 420.561 479.922 416 490.18 417.33C490.381 419.458 490.589 421.592 490.79 423.72C491.201 427.971 491.608 432.217 492.011 436.459C492.422 439.722 492.529 443.017 492.329 446.3Z" fill="#FBBEBE"/>
<path d="M559.994 468.003C556.15 469.199 552.203 470.243 548.08 471.101C547.392 471.247 546.697 471.387 546.003 471.52C541.783 472.331 537.51 472.923 533.193 473.328C532.751 464.086 526.7 455.589 525.817 446.1C525.637 443.742 525.661 441.373 525.889 439.019C525.967 438.088 526.058 437.157 526.142 436.227L527.973 417.097C529.43 416.909 530.9 416.836 532.368 416.878C540.809 417.084 548.489 420.827 556.852 423.746C557.475 427.782 557.692 431.873 557.501 435.954C557.183 446.34 555.553 456.852 559.319 466.38C559.533 466.919 559.767 467.457 559.994 468.003Z" fill="#FBBEBE"/>
<path d="M450.4 322.162C451.536 331.231 447.011 339.915 445.05 348.831C443.752 354.729 443.576 360.799 443.401 366.85L442.375 403.094C442.271 406.718 442.181 410.408 443.258 413.886C445.427 420.854 452.108 425.561 459.061 427.237C466.015 428.913 473.286 428.061 480.37 427.104C483.843 426.632 487.466 426.08 490.342 424.025C494.296 421.2 496.023 416.166 497.516 411.472L501.73 398.22C506.58 409.404 504.528 421.632 507.437 433.5C507.624 434.598 508.069 435.632 508.735 436.512C509.963 437.909 511.982 438.128 513.819 438.261C526.545 439.179 539.445 440.09 551.963 437.596C555.404 436.931 558.994 435.854 561.37 433.208C564.136 430.129 564.617 425.601 564.584 421.419C564.409 407.05 559.338 393.187 558.209 378.865C557.722 372.728 557.962 366.557 557.748 360.4C557.579 355.77 557.156 351.152 556.482 346.57C556.267 344.471 555.705 342.425 554.819 340.52C552.872 336.796 548.827 334.775 544.996 333.206C515.235 320.825 482.499 320.945 450.4 322.162Z" fill="#F86D70"/>
<path d="M505.502 143.747C520.921 143.747 533.42 130.946 533.42 115.156C533.42 99.3651 520.921 86.5645 505.502 86.5645C490.084 86.5645 477.584 99.3651 477.584 115.156C477.584 130.946 490.084 143.747 505.502 143.747Z" fill="#FBBEBE"/>
<path d="M529.836 165.516C527.765 170.17 524.506 174.824 519.656 176.008C515.196 177.105 510.469 174.904 507.184 171.626C503.899 168.348 501.749 164.093 499.471 160.017C497.809 157.038 495.958 154.033 493.147 152.158C489.303 149.604 484.343 149.671 479.811 150.422C475.279 151.174 470.78 152.517 466.177 152.211C460.444 151.819 454.601 148.886 449.192 150.841C450.945 158.873 450.316 167.703 450.114 175.935C450.148 177.206 449.973 178.474 449.595 179.685C449.123 180.814 448.486 181.864 447.706 182.797L442.512 189.652C448.082 193.921 452.9 199.493 454.847 206.334C455.945 210.231 455.607 214.367 455.568 218.422C455.445 230.331 457.97 242.193 457.172 254.075C456.237 267.991 450.809 281.143 448.011 294.794C445.614 306.512 445.162 318.561 446.673 330.433C475.773 340.746 505.755 346.025 536.517 347.754C541.951 348.06 547.82 348.106 552.281 344.908C555.988 342.248 558.066 337.694 558.773 333.106C559.481 328.518 558.994 323.85 558.501 319.236C557.163 306.758 555.828 294.28 554.495 281.802C553.735 274.7 552.976 267.559 553.469 260.438C553.839 255.119 554.904 249.899 555.962 244.693L562.455 212.737C563.383 208.196 564.318 203.622 566.155 199.386C567.662 195.929 569.746 192.737 571.408 189.373C573.389 185.339 574.755 181.018 575.459 176.56C575.741 175.266 575.723 173.922 575.407 172.637C574.713 170.456 572.589 169.146 570.609 168.076C558.534 161.577 545.593 156.928 532.199 154.279C531.291 158.195 531.466 161.865 529.836 165.516Z" fill="#E3E8F4"/>
<path d="M527.142 146.366C530.388 139.996 536.459 135.528 539.984 129.305C541.933 125.776 543.022 121.819 543.16 117.768C543.298 113.717 542.48 109.692 540.776 106.033C539.536 103.44 537.855 101.059 536.881 98.3466C535.796 95.2614 535.693 91.8637 534.439 88.8451C532.719 84.7093 528.992 81.7305 524.934 80.0151C520.877 78.2996 516.494 77.6813 512.125 77.0828L497.374 75.0482C495.238 74.7556 493.024 74.4631 490.946 75.0482C488.868 75.6333 486.934 77.3687 486.765 79.5762C486.564 82.1893 488.803 84.6229 488.284 87.1894C488.096 88.0937 487.576 89.0113 487.875 89.889C488.141 90.4753 488.601 90.9463 489.173 91.2188C492.673 93.2135 496.854 93.393 500.646 94.6963C504.437 95.9995 508.242 99.2708 507.859 103.34C507.651 105.528 506.275 107.802 507.21 109.763C508.106 111.578 510.456 111.911 512.332 112.476C518.403 114.278 522.662 121.02 521.779 127.436C521.506 129.431 520.805 131.339 520.662 133.341C520.188 140.349 521.266 142.35 526.856 146.426L527.142 146.366Z" fill="#3F3D56"/>
<path d="M565.065 176.673C565.095 178 564.858 179.319 564.37 180.549C562.344 184.971 556.144 184.692 552.034 187.198C546.918 190.323 545.788 197.298 545.321 203.376C544.789 210.257 544.425 217.239 545.801 223.988C547.178 230.737 550.489 237.319 556.021 241.275C562.753 246.069 571.908 246.236 579.595 243.317C587.282 240.398 593.703 234.753 599.274 228.582C604.559 222.731 609.292 216.208 612.129 208.781C612.629 207.451 613.071 206.042 612.668 204.712C612.064 202.717 609.941 201.813 608.214 200.723C604.182 198.229 601.494 193.881 600.098 189.286C598.703 184.692 598.469 179.805 598.423 174.984C598.371 169.977 598.358 164.505 595.242 160.642C592.126 156.779 586.724 155.695 581.802 155.735C577.777 155.735 566.636 156.127 563.89 159.724C561.637 162.716 565.227 172.391 565.065 176.673Z" fill="#BE6F72"/>
<path opacity="0.1" d="M565.065 176.673C565.095 178 564.858 179.319 564.37 180.549C562.344 184.971 556.144 184.692 552.034 187.198C546.918 190.323 545.788 197.298 545.321 203.376C544.789 210.257 544.425 217.239 545.801 223.988C547.178 230.737 550.489 237.319 556.021 241.275C562.753 246.069 571.908 246.236 579.595 243.317C587.282 240.398 593.703 234.753 599.274 228.582C604.559 222.731 609.292 216.208 612.129 208.781C612.629 207.451 613.071 206.042 612.668 204.712C612.064 202.717 609.941 201.813 608.214 200.723C604.182 198.229 601.494 193.881 600.098 189.286C598.703 184.692 598.469 179.805 598.423 174.984C598.371 169.977 598.358 164.505 595.242 160.642C592.126 156.779 586.724 155.695 581.802 155.735C577.777 155.735 566.636 156.127 563.89 159.724C561.637 162.716 565.227 172.391 565.065 176.673Z" fill="black"/>
<path d="M530.447 354.988C530.647 356.001 531.114 356.939 531.797 357.701C532.438 358.219 533.187 358.581 533.985 358.758C555.293 365.161 578.056 362.608 600.118 359.995C597.099 350.58 594.06 341.058 593.223 331.184C592.528 323.039 593.307 314.562 590.489 306.922C589.658 304.661 541.224 315.067 536.446 315.911C533.998 316.344 531.18 316.197 529.447 318.185C527.356 320.592 527.181 326.324 526.96 329.323C526.337 337.986 528.083 346.71 530.447 354.988Z" fill="#BE6F72"/>
<path d="M578.965 460.536C575.07 462.384 571.051 464.106 566.889 465.649C564.638 466.487 562.34 467.271 559.994 468.003C556.15 469.199 552.203 470.243 548.08 471.101C545.73 464.997 543.377 458.891 541.023 452.783C539.289 448.288 537.556 443.773 536.108 439.179C535.101 436.041 534.273 432.847 533.628 429.611C531.502 418.612 532.055 407.246 535.238 396.518C544.237 398.254 553.034 399.384 561.896 400.7C566.629 401.365 571.375 402.15 576.18 403.074C576.556 406.279 576.898 409.484 577.206 412.689C577.673 417.636 578.056 422.583 578.355 427.53C579.017 438.523 579.221 449.525 578.965 460.536Z" fill="#BE6F72"/>
<path opacity="0.1" d="M578.965 460.536C575.07 462.384 571.051 464.106 566.889 465.649C564.638 466.487 562.34 467.271 559.994 468.003C556.15 469.199 552.203 470.243 548.08 471.101C545.73 464.997 543.377 458.891 541.023 452.783C539.289 448.288 537.556 443.773 536.108 439.179C535.101 436.041 534.273 432.847 533.628 429.611C531.502 418.612 532.055 407.246 535.238 396.518C544.237 398.254 553.034 399.384 561.896 400.7C566.629 401.365 571.375 402.15 576.18 403.074C576.556 406.279 576.898 409.484 577.206 412.689C577.673 417.636 578.056 422.583 578.355 427.53C579.017 438.523 579.221 449.525 578.965 460.536Z" fill="black"/>
<path d="M628.893 431.725C628.945 435.555 627.88 439.465 626.893 443.221C626.822 443.487 626.757 443.747 626.692 444.013C624.344 443.264 622.319 441.709 620.959 439.611C620.256 438.473 619.737 437.227 619.42 435.921C616.481 437.969 613.516 439.997 610.525 442.005C600.741 448.587 590.399 455.123 578.965 460.536C575.07 462.384 571.051 464.106 566.889 465.649C566.023 462.546 565.201 459.423 564.422 456.28C563.57 453.044 562.903 449.761 562.422 446.446C561.471 438.917 562.208 431.265 564.578 424.072L564.87 423.208C565.973 420.008 567.398 416.936 569.122 414.039C570.739 411.379 573.94 411.824 577.206 412.709C578.686 413.101 580.186 413.573 581.549 413.866C590.035 415.688 598.845 413.806 607.519 414.304C611.653 414.516 615.704 415.572 619.433 417.41C623.608 419.557 626.971 422.842 628.289 427.383C628.476 428.037 628.619 428.704 628.718 429.378C628.827 430.156 628.885 430.94 628.893 431.725Z" fill="#BE6F72"/>
<path d="M472.695 125.501C459.288 112.203 444.05 100.933 428.462 90.3943C424.406 87.7891 420.503 84.9405 416.775 81.8635C412.88 78.539 409.484 74.636 405.348 71.6439C401.213 68.6518 396.097 66.5972 391.13 67.5813C386.163 68.5654 381.748 73.4325 382.475 78.5257C383.124 83.0072 387.059 86.0791 390.695 88.6523C397.577 93.526 404.491 98.4131 411.977 102.236C414.578 103.444 417.1 104.821 419.528 106.359C424.19 109.577 427.585 114.338 431.111 118.813C444.417 135.739 460.716 149.95 479.156 160.702C479.376 160.835 487.057 143.86 486.732 141.659C486.018 136.599 476.227 129.012 472.695 125.501Z" fill="#BE6F72"/>
<path d="M587.367 340.373C577.017 341.038 567.09 344.615 556.969 346.896C546.847 349.177 535.848 350.061 526.454 345.566L532.167 385.521C532.485 387.741 532.816 390.015 532.342 392.203C531.907 394.291 530.778 396.259 530.875 398.393C531.024 401.771 534.121 404.145 537.036 405.707C545.505 410.286 554.993 412.525 564.565 412.203C563.857 415.129 562.974 418.021 562.26 420.947C567.032 426.193 574.836 426.545 581.647 428.208C586.841 429.464 591.71 431.645 596.8 433.181C602.956 435.042 609.347 435.954 615.765 435.887C620.095 435.841 624.686 435.223 628.049 432.457C632.185 429.046 633.47 423.248 634.366 417.888C634.866 414.896 635.327 411.864 635.015 408.846C634.678 405.375 633.366 402.09 632.068 398.872L623.173 376.764C621.556 372.774 619.927 368.725 617.979 364.875C611.616 352.421 601.059 339.502 587.367 340.373Z" fill="#3F3D56"/>
<path d="M595.287 202.325C596.056 200.256 597.475 198.508 599.32 197.356C601.166 196.204 603.333 195.714 605.481 195.962C608.078 196.334 610.396 197.79 612.623 199.213L625.023 207.139C627.078 208.391 629.05 209.782 630.925 211.301C639.476 218.562 642.774 230.497 643.715 241.834C644.657 253.171 643.715 264.7 645.916 275.851C640.683 280.292 634.879 284.049 629.646 288.484C626.906 290.804 624.134 293.138 622.056 296.124C620.407 298.471 619.232 301.157 617.511 303.438C614.694 307.042 610.607 309.368 606.13 309.914C608.967 311.603 610.558 314.881 611.324 318.145C612.09 321.41 612.298 324.795 613.148 328.059C614.317 332.494 616.739 336.544 617.537 341.065C618.096 344.183 617.849 347.382 618.05 350.546C619.063 366.923 631.613 381.239 630.802 397.622C624.878 395.417 619.274 392.4 614.142 388.652C611.83 386.957 609.597 385.122 607.409 383.293L590.873 369.563C582.828 362.914 574.706 356.118 568.311 347.767C564.299 342.528 561.026 336.73 557.001 331.503C552.976 326.277 548.022 321.53 541.873 319.336C540.971 320.725 539.367 321.689 538.465 323.079C538.306 323.298 538.179 323.54 538.088 323.797C537.979 324.417 538.053 325.056 538.303 325.632C539.028 328.322 539.463 331.084 539.601 333.871L540.01 338.871C540.163 340.196 540.163 341.535 540.01 342.86C539.393 347.136 535.524 350.453 531.349 351.118C530.745 351.252 530.119 351.231 529.525 351.058C528.362 350.66 527.72 349.403 527.369 348.206C525.726 342.528 528.246 336.537 528.447 330.626C528.475 329.126 528.425 327.626 528.297 326.131L527.908 320.233C524.136 319.429 521.967 315.28 520.967 311.47C518.267 301.184 515.546 290.538 517.111 280.006C517.526 277.187 518.254 274.328 517.76 271.509C517.111 267.739 514.462 264.68 513.066 261.13C508.521 249.554 518.176 236.987 517.28 224.56C516.903 219.34 513.67 214.805 511.722 209.965C510.714 207.143 509.408 204.443 507.827 201.913C505.84 199.007 503.158 196.68 500.555 194.339C492.514 187.114 484.888 179.42 477.714 171.294C474.03 170.902 470.574 169.281 467.878 166.679C466.164 165.017 464.755 162.823 464.71 160.409C464.664 157.996 466.404 155.462 468.761 155.336C470.137 155.263 471.423 155.961 472.767 156.267C476.974 157.211 481.207 154.039 483.083 150.057C484.96 146.074 484.96 141.493 484.927 137.078C486.983 136.704 489.099 136.879 491.07 137.586C493.04 138.293 494.8 139.508 496.179 141.114C499.081 144.345 500.97 148.374 503.256 152.085C504.186 153.733 505.38 155.21 506.788 156.453C509.911 158.993 514.41 159.472 517.137 162.437C518.52 163.953 519.286 165.961 520.552 167.584C524.11 172.151 530.622 172.71 535.485 175.715C540.348 178.721 543.73 184.213 549.119 185.995C551.067 186.66 553.19 186.746 555.118 187.484C559.572 189.18 562.292 194.027 562.909 198.848C563.526 203.668 562.474 208.542 561.409 213.289L558.91 224.4C558.358 226.86 557.936 229.819 559.708 231.574C560.546 232.284 561.529 232.791 562.585 233.057C567.129 234.573 572.194 236.062 576.466 233.915C578.485 232.891 580.069 231.162 581.517 229.393C587.854 221.747 592.067 211.733 595.287 202.325Z" fill="#24B086"/>
<path d="M646.533 428.427C645.637 434.511 642.365 440.495 637.008 443.281C633.797 444.903 630.091 445.166 626.692 444.013C624.344 443.264 622.319 441.709 620.959 439.611C620.256 438.473 619.737 437.227 619.42 435.921C619.42 435.854 619.388 435.781 619.375 435.715C618.887 433.362 618.684 430.957 618.771 428.554C618.769 424.822 618.986 421.094 619.42 417.39C619.782 414.27 620.382 411.185 621.212 408.161C622.42 403.846 624.16 399.69 625.757 395.528C626.588 393.333 627.387 391.132 628.042 388.878C628.438 387.549 628.776 386.179 629.049 384.796L629.146 384.297C629.198 384.018 629.243 383.739 629.289 383.459C629.938 379.669 630.126 375.747 631.795 372.322C635.691 364.283 643.274 366.338 644.429 373.752C644.517 374.326 644.567 374.906 644.579 375.487C644.754 384.869 641.118 394.038 642.78 403.453C643.249 405.749 643.839 408.018 644.546 410.249C645.131 412.303 645.657 414.384 646.059 416.492C646.874 420.414 647.035 424.45 646.533 428.427Z" fill="#BE6F72"/>
<path d="M650.104 324.103C650.279 327.946 650.104 331.836 650.857 335.606C652.617 344.516 659.297 352.401 658.557 361.458C658.375 363.665 657.577 366.039 655.694 367.129C653.811 368.22 650.695 368.133 650.078 370.327C649.903 370.939 649.994 371.604 649.799 372.209C649.39 373.499 647.851 374.051 646.553 374.018C645.254 373.984 643.955 373.546 642.612 373.659C637.904 374.064 636.177 380.514 631.983 382.728C629.159 384.217 625.491 383.393 623.16 381.192C620.829 378.991 619.81 375.56 619.992 372.309C620.128 369.855 620.887 367.488 621.29 365.068C622.024 360.753 621.641 356.331 621.258 351.969C620.693 345.579 620.108 339.11 618.057 333.053C617.089 330.194 615.804 327.461 614.966 324.562C613.772 320.459 613.499 316.144 613.376 311.869C613.122 302.872 613.726 293.251 618.972 286.017C622.913 280.591 628.562 276.183 633.022 271.163C635.814 268.018 636.619 267.034 639.703 269.7C642.241 271.888 644.897 274.906 645.183 277.872C645.962 285.472 645.183 292.945 646.572 300.685C647.961 308.424 649.74 316.157 650.104 324.103Z" fill="#24B086"/>
<path d="M582.763 177.657C601.051 177.657 615.875 162.475 615.875 143.747C615.875 125.018 601.051 109.836 582.763 109.836C564.476 109.836 549.651 125.018 549.651 143.747C549.651 162.475 564.476 177.657 582.763 177.657Z" fill="#BE6F72"/>
<path d="M613.083 208.615C613.811 207.571 614.674 206.447 615.908 206.228C616.839 206.156 617.771 206.357 618.596 206.807L627.315 210.537C629.671 206.552 631.061 202.046 631.366 197.398C631.548 194.546 631.327 191.653 631.86 188.847C632.652 184.685 635.061 180.955 635.619 176.753C636.061 173.362 635.262 169.951 634.781 166.566C633.301 156.114 634.892 145.449 634.041 134.923C633.191 124.398 629.068 113.121 619.901 108.287C617.304 106.957 614.505 106.159 611.804 105.109C605.786 102.762 600.391 99.0049 594.443 96.4649C588.496 93.925 581.51 92.7614 575.745 95.6804C569.98 98.5993 566.623 106.811 570.369 112.17C571.603 113.932 573.408 115.182 575.135 116.452C578.647 119.025 582.231 122.204 583.043 126.552C584.497 134.378 576.55 140.515 574.31 148.168C573.483 151.157 573.409 154.312 574.096 157.337C575.063 161.872 577.426 166.154 577.342 170.795C577.277 175.882 574.304 180.489 573.745 185.549C573.544 187.404 573.667 189.286 573.44 191.135C573.04 193.573 572.335 195.948 571.343 198.203C566.149 211.501 560.883 224.939 553.164 236.894C561.429 237.037 569.599 235.082 576.946 231.202C575.89 236.327 573.868 241.192 570.992 245.524C577.598 244.741 583.953 242.47 589.6 238.875C588.23 243.9 586.245 248.728 583.692 253.244C583.913 252.858 587.996 251.914 588.749 251.475C590.298 250.574 591.543 249.213 592.32 247.572C594.528 243.529 595.904 238.656 597.949 234.453C602.322 225.446 607.382 216.806 613.083 208.615Z" fill="#3F3D56"/>
<path d="M361.965 5.11979C360.393 5.28204 358.81 5.31983 357.232 5.23283C356.963 5.20272 356.693 5.28202 356.481 5.45363C356.268 5.62525 356.13 5.87546 356.096 6.1504L353.077 29.3424C352.845 31.0259 352.172 32.6136 351.129 33.9369C350.27 34.99 349.631 36.2128 349.252 37.5293C348.874 38.8458 348.763 40.228 348.928 41.59V80.9858C348.928 80.9858 348.733 86.2386 352.674 86.2386C357.391 86.8456 362.163 86.8456 366.88 86.2386C366.88 86.2386 370.035 85.6269 370.035 80.7797V41.989C370.276 40.6356 370.227 39.2448 369.89 37.913C369.554 36.5812 368.939 35.3402 368.088 34.276C367.08 32.9479 366.429 31.3733 366.198 29.7081L363.062 6.03071C363.027 5.76451 362.894 5.52219 362.69 5.35299C362.486 5.18378 362.227 5.10041 361.965 5.11979Z" fill="#3F3D56"/>
<path d="M361.985 42.2948H357.2C353.237 42.2948 350.025 45.5843 350.025 49.6421V68.08C350.025 72.1378 353.237 75.4272 357.2 75.4272H361.985C365.947 75.4272 369.159 72.1378 369.159 68.08V49.6421C369.159 45.5843 365.947 42.2948 361.985 42.2948Z" fill="#24B086"/>
<path d="M406.764 39.0301C405.191 39.1924 403.609 39.2302 402.031 39.1432C401.762 39.1131 401.492 39.1924 401.279 39.364C401.067 39.5356 400.929 39.7858 400.894 40.0607L397.875 63.2528C397.643 64.9363 396.97 66.524 395.928 67.8473C395.068 68.9004 394.429 70.1231 394.051 71.4396C393.672 72.7562 393.562 74.1383 393.727 75.5004V114.896C393.727 114.896 393.532 120.149 397.473 120.149C402.19 120.756 406.962 120.756 411.679 120.149C411.679 120.149 414.834 119.537 414.834 114.69V75.8993C415.075 74.5459 415.025 73.1552 414.689 71.8233C414.352 70.4915 413.737 69.2505 412.886 68.1864C411.879 66.8583 411.227 65.2836 410.997 63.6185L407.861 39.9411C407.825 39.6749 407.692 39.4325 407.488 39.2633C407.284 39.0941 407.025 39.0107 406.764 39.0301Z" fill="#3F3D56"/>
<path d="M406.783 76.2052H401.998C398.036 76.2052 394.824 79.4946 394.824 83.5524V101.99C394.824 106.048 398.036 109.338 401.998 109.338H406.783C410.745 109.338 413.957 106.048 413.957 101.99V83.5524C413.957 79.4946 410.745 76.2052 406.783 76.2052Z" fill="#24B086"/>
<g opacity="0.2">
<path opacity="0.2" d="M356.408 436.333C356.387 437.05 356.307 437.764 356.167 438.467C351.649 437.732 347.104 437.067 342.533 436.473C342.533 436.286 342.533 436.094 342.533 435.901C342.575 433.907 343.136 431.961 344.156 430.262C345.494 428.095 347.526 426.738 349.766 426.811C352.006 426.885 353.947 428.367 355.148 430.608C356.057 432.368 356.491 434.344 356.408 436.333Z" fill="#3F3D56"/>
<path opacity="0.2" d="M356.772 424.979C356.931 419.837 353.951 415.567 350.116 415.443C346.281 415.319 343.044 419.387 342.885 424.529C342.726 429.672 345.706 433.941 349.541 434.065C353.376 434.189 356.613 430.121 356.772 424.979Z" fill="#3F3D56"/>
<path opacity="0.2" d="M357.126 413.595C357.285 408.453 354.305 404.184 350.47 404.06C346.635 403.936 343.398 408.004 343.239 413.146C343.08 418.288 346.06 422.557 349.895 422.681C353.73 422.805 356.967 418.737 357.126 413.595Z" fill="#3F3D56"/>
<path opacity="0.2" d="M357.474 402.212C357.633 397.07 354.652 392.8 350.818 392.676C346.983 392.552 343.745 396.62 343.587 401.762C343.428 406.904 346.408 411.174 350.243 411.298C354.078 411.422 357.315 407.354 357.474 402.212Z" fill="#3F3D56"/>
<path opacity="0.2" d="M357.828 390.828C357.987 385.686 355.007 381.417 351.172 381.293C347.337 381.169 344.1 385.237 343.941 390.379C343.782 395.521 346.762 399.79 350.597 399.914C354.432 400.038 357.669 395.97 357.828 390.828Z" fill="#3F3D56"/>
<path opacity="0.2" d="M327.256 311.835C326.342 310.568 325.517 309.234 324.789 307.846L343.137 305.366L323.387 304.881C321.624 300.599 320.733 295.995 320.768 291.348C320.802 286.702 321.762 282.112 323.588 277.859L349.636 292.786L325.776 273.61C328.183 269.623 331.367 266.187 335.128 263.517C338.89 260.847 343.149 259 347.64 258.091C352.13 257.182 356.755 257.231 361.225 258.236C365.696 259.24 369.917 261.177 373.624 263.926C377.331 266.676 380.444 270.179 382.77 274.216C385.095 278.253 386.583 282.738 387.14 287.391C387.697 292.043 387.312 296.764 386.007 301.257C384.703 305.75 382.508 309.919 379.56 313.504C380.982 315.476 382.19 317.601 383.163 319.841L359.083 331.676L384.618 323.81C386.226 329.244 386.485 335.003 385.372 340.566C384.258 346.128 381.808 351.318 378.242 355.666C381.949 360.817 384.166 366.933 384.639 373.314C385.113 379.695 383.823 386.084 380.917 391.749C378.012 397.415 373.609 402.128 368.21 405.352C362.812 408.575 356.638 410.177 350.392 409.975C344.147 409.774 338.083 407.776 332.893 404.211C327.704 400.646 323.6 395.658 321.048 389.816C318.497 383.974 317.603 377.515 318.468 371.178C319.333 364.84 321.921 358.879 325.938 353.977C321.509 347.821 319.229 340.319 319.465 332.676C319.7 325.033 322.437 317.693 327.237 311.835H327.256Z" fill="#24B086"/>
<path opacity="0.1" d="M386.033 334.828C385.806 342.475 383.06 349.819 378.242 355.666C381.949 360.817 384.166 366.933 384.639 373.314C385.113 379.695 383.823 386.083 380.917 391.749C378.012 397.415 373.609 402.128 368.21 405.351C362.812 408.575 356.638 410.177 350.392 409.975C344.147 409.774 338.083 407.776 332.893 404.211C327.704 400.646 323.6 395.658 321.048 389.816C318.497 383.974 317.603 377.515 318.468 371.178C319.333 364.84 321.921 358.879 325.938 353.977C321.673 348.04 386.15 331.005 386.033 334.828Z" fill="black"/>
</g>
</g>
<defs>
<clipPath id="clip0">
<rect width="737" height="474" fill="white"/>
</clipPath>
</defs>
</svg>
