<svg width="106" height="19" viewBox="0 0 106 19" fill="none" xmlns="http://www.w3.org/2000/svg">
<path d="M10.7891 11.0273H4.03906V18H0.523438V0.9375H11.6328V3.78516H4.03906V8.19141H10.7891V11.0273ZM20.2695 8.49609C19.8086 8.43359 19.4023 8.40234 19.0508 8.40234C17.7695 8.40234 16.9297 8.83594 16.5312 9.70312V18H13.1445V5.32031H16.3438L16.4375 6.83203C17.1172 5.66797 18.0586 5.08594 19.2617 5.08594C19.6367 5.08594 19.9883 5.13672 20.3164 5.23828L20.2695 8.49609ZM27.5117 18.2344C25.6523 18.2344 24.1367 17.6641 22.9648 16.5234C21.8008 15.3828 21.2188 13.8633 21.2188 11.9648V11.6367C21.2188 10.3633 21.4648 9.22656 21.957 8.22656C22.4492 7.21875 23.1445 6.44531 24.043 5.90625C24.9492 5.35938 25.9805 5.08594 27.1367 5.08594C28.8711 5.08594 30.2344 5.63281 31.2266 6.72656C32.2266 7.82031 32.7266 9.37109 32.7266 11.3789V12.7617H24.6523C24.7617 13.5898 25.0898 14.2539 25.6367 14.7539C26.1914 15.2539 26.8906 15.5039 27.7344 15.5039C29.0391 15.5039 30.0586 15.0312 30.793 14.0859L32.457 15.9492C31.9492 16.668 31.2617 17.2305 30.3945 17.6367C29.5273 18.0352 28.5664 18.2344 27.5117 18.2344ZM27.125 7.82812C26.4531 7.82812 25.9062 8.05469 25.4844 8.50781C25.0703 8.96094 24.8047 9.60938 24.6875 10.4531H29.3984V10.1836C29.3828 9.43359 29.1797 8.85547 28.7891 8.44922C28.3984 8.03516 27.8438 7.82812 27.125 7.82812ZM40.4961 18.2344C38.6367 18.2344 37.1211 17.6641 35.9492 16.5234C34.7852 15.3828 34.2031 13.8633 34.2031 11.9648V11.6367C34.2031 10.3633 34.4492 9.22656 34.9414 8.22656C35.4336 7.21875 36.1289 6.44531 37.0273 5.90625C37.9336 5.35938 38.9648 5.08594 40.1211 5.08594C41.8555 5.08594 43.2188 5.63281 44.2109 6.72656C45.2109 7.82031 45.7109 9.37109 45.7109 11.3789V12.7617H37.6367C37.7461 13.5898 38.0742 14.2539 38.6211 14.7539C39.1758 15.2539 39.875 15.5039 40.7188 15.5039C42.0234 15.5039 43.043 15.0312 43.7773 14.0859L45.4414 15.9492C44.9336 16.668 44.2461 17.2305 43.3789 17.6367C42.5117 18.0352 41.5508 18.2344 40.4961 18.2344ZM40.1094 7.82812C39.4375 7.82812 38.8906 8.05469 38.4688 8.50781C38.0547 8.96094 37.7891 9.60938 37.6719 10.4531H42.3828V10.1836C42.3672 9.43359 42.1641 8.85547 41.7734 8.44922C41.3828 8.03516 40.8281 7.82812 40.1094 7.82812ZM58.1328 10.6055H51.3828V15.1758H59.3047V18H47.8672V0.9375H59.2812V3.78516H51.3828V7.85156H58.1328V10.6055ZM65.5859 13.8633L67.9414 5.32031H71.4805L67.2031 18H63.9688L59.6914 5.32031H63.2305L65.5859 13.8633ZM78.6523 18.2344C76.793 18.2344 75.2773 17.6641 74.1055 16.5234C72.9414 15.3828 72.3594 13.8633 72.3594 11.9648V11.6367C72.3594 10.3633 72.6055 9.22656 73.0977 8.22656C73.5898 7.21875 74.2852 6.44531 75.1836 5.90625C76.0898 5.35938 77.1211 5.08594 78.2773 5.08594C80.0117 5.08594 81.375 5.63281 82.3672 6.72656C83.3672 7.82031 83.8672 9.37109 83.8672 11.3789V12.7617H75.793C75.9023 13.5898 76.2305 14.2539 76.7773 14.7539C77.332 15.2539 78.0312 15.5039 78.875 15.5039C80.1797 15.5039 81.1992 15.0312 81.9336 14.0859L83.5977 15.9492C83.0898 16.668 82.4023 17.2305 81.5352 17.6367C80.668 18.0352 79.707 18.2344 78.6523 18.2344ZM78.2656 7.82812C77.5938 7.82812 77.0469 8.05469 76.625 8.50781C76.2109 8.96094 75.9453 9.60938 75.8281 10.4531H80.5391V10.1836C80.5234 9.43359 80.3203 8.85547 79.9297 8.44922C79.5391 8.03516 78.9844 7.82812 78.2656 7.82812ZM88.918 5.32031L89.0234 6.78516C89.9297 5.65234 91.1445 5.08594 92.668 5.08594C94.0117 5.08594 95.0117 5.48047 95.668 6.26953C96.3242 7.05859 96.6602 8.23828 96.6758 9.80859V18H93.2891V9.89062C93.2891 9.17188 93.1328 8.65234 92.8203 8.33203C92.5078 8.00391 91.9883 7.83984 91.2617 7.83984C90.3086 7.83984 89.5938 8.24609 89.1172 9.05859V18H85.7305V5.32031H88.918ZM103.309 2.20312V5.32031H105.477V7.80469H103.309V14.1328C103.309 14.6016 103.398 14.9375 103.578 15.1406C103.758 15.3438 104.102 15.4453 104.609 15.4453C104.984 15.4453 105.316 15.418 105.605 15.3633V17.9297C104.941 18.1328 104.258 18.2344 103.555 18.2344C101.18 18.2344 99.9688 17.0352 99.9219 14.6367V7.80469H98.0703V5.32031H99.9219V2.20312H103.309Z" fill="#36BC94"/>
</svg>
